<?xml version="1.0" standalone="no"?>
<!DOCTYPE svg PUBLIC "-//W3C//DTD SVG 20010904//EN"
 "http://www.w3.org/TR/2001/REC-SVG-20010904/DTD/svg10.dtd">
<svg version="1.0" xmlns="http://www.w3.org/2000/svg"
 width="300.000000pt" height="300.000000pt" viewBox="0 0 300.000000 300.000000"
 preserveAspectRatio="xMidYMid meet">
<metadata>
Created by potrace 1.10, written by Peter Selinger 2001-2011
</metadata>
<g transform="translate(0.000000,300.000000) scale(0.100000,-0.100000)"
fill="#000000" stroke="none">
<path d="M1218 2660 c-49 -24 -91 -53 -110 -75 -17 -20 -17 -20 -33 0 -16 19
-16 19 -4 -5 9 -18 9 -25 0 -28 -6 -2 -11 -9 -11 -15 0 -6 -10 -21 -22 -34
-18 -19 -20 -26 -9 -32 7 -5 9 -11 4 -14 -5 -3 -14 3 -21 14 -7 11 -8 19 -2
19 5 0 10 5 10 12 0 6 -9 3 -20 -7 -21 -19 -28 -7 -8 13 6 6 10 13 7 16 -2 2
-15 -10 -29 -27 -19 -24 -21 -29 -7 -24 10 4 17 2 17 -6 0 -8 3 -8 9 2 13 20
24 -4 16 -38 -3 -16 -13 -32 -21 -35 -8 -3 -14 -10 -14 -16 0 -6 5 -8 10 -5
16 10 12 -11 -5 -25 -8 -6 -18 -9 -24 -6 -5 3 -7 -3 -4 -14 3 -13 0 -20 -8
-20 -11 0 -14 -19 -15 -78 -1 -48 2 -68 7 -52 4 16 7 19 8 8 1 -10 6 -18 11
-18 6 0 10 -4 10 -10 0 -5 -7 -10 -15 -10 -8 0 -15 -7 -15 -15 0 -15 -19 -22
-21 -7 -2 13 -2 106 0 155 1 34 4 46 13 41 7 -5 8 -3 3 6 -13 21 -10 75 4 72
7 -1 10 2 7 7 -4 5 -2 12 4 16 5 3 10 14 10 23 0 22 -43 -43 -47 -72 -2 -12
-6 -68 -9 -126 -3 -58 -10 -115 -16 -126 -5 -12 -8 -30 -5 -40 4 -16 5 -16 6
3 0 12 5 24 10 27 9 6 6 -57 -4 -74 -7 -12 19 -75 36 -86 6 -3 1 12 -10 35
-23 44 -25 51 -13 51 5 0 13 -12 19 -27 11 -27 11 -27 7 7 -3 26 -2 30 4 15
16 -35 21 -114 7 -109 -15 6 -65 -33 -65 -51 0 -8 9 -32 21 -54 24 -48 43
-204 28 -233 -9 -18 -6 -73 7 -120 7 -25 30 -22 48 4 21 29 21 15 1 -16 -14
-21 -14 -24 -1 -22 9 0 33 -37 67 -104 48 -98 52 -111 57 -196 4 -89 4 -92
-37 -184 -39 -88 -56 -180 -32 -180 15 0 22 30 11 50 -14 25 -13 40 3 40 7 0
21 26 32 57 10 32 25 69 33 82 11 19 13 43 8 105 -8 114 -10 123 -46 201 -18
39 -43 102 -56 140 -12 39 -28 69 -33 68 -6 -2 -11 4 -11 13 0 8 5 12 10 9 14
-9 12 11 -4 43 -7 15 -12 37 -11 49 1 12 -2 20 -7 17 -4 -3 -8 11 -8 31 0 48
-28 145 -48 168 -19 22 -6 50 24 55 16 2 23 -9 38 -52 32 -94 76 -116 228
-116 100 0 130 9 176 53 17 17 32 28 32 25 0 -9 -58 -79 -67 -79 -23 -1 -63
-47 -69 -79 -4 -19 -14 -44 -23 -54 -13 -16 -13 -18 -1 -11 8 5 3 -3 -12 -18
-28 -26 -39 -54 -15 -41 6 4 3 -4 -9 -17 -33 -37 -37 -49 -19 -49 11 0 15 5
11 16 -3 8 -2 13 3 10 5 -4 20 13 34 36 14 24 39 60 56 82 17 22 31 51 31 66
0 18 14 42 43 72 23 25 60 73 81 108 37 58 60 79 72 68 3 -3 5 -35 5 -71 1
-51 -5 -79 -27 -126 -14 -34 -30 -61 -34 -61 -5 0 -20 14 -34 31 -16 19 -26
25 -26 15 0 -8 -13 -23 -30 -33 -16 -9 -30 -25 -30 -35 0 -27 44 -51 79 -43
24 5 32 2 41 -14 6 -12 7 -21 2 -21 -13 0 -13 -73 -1 -81 6 -4 20 -4 30 -2 15
4 19 14 18 42 -1 21 -3 28 -6 16 -10 -42 -23 -38 -23 6 0 52 -26 85 -59 76
-11 -3 -28 1 -37 7 -16 12 -15 14 6 29 22 15 25 15 43 0 25 -24 46 -9 80 57
22 45 27 66 27 131 0 57 -4 80 -15 89 -11 9 -13 16 -5 24 14 14 13 69 -2 84
-30 30 -79 4 -112 -60 -15 -29 -28 -40 -68 -53 -66 -21 -97 -13 -131 36 l-27
39 24 11 c24 11 46 47 46 75 0 8 -13 22 -29 31 l-29 17 23 18 c29 23 42 23 24
1 -12 -15 -12 -16 4 -10 10 4 21 7 23 7 3 0 3 3 1 8 -3 4 20 8 51 10 31 2 60
9 64 15 4 7 8 8 8 2 0 -5 5 -2 11 8 6 9 15 14 21 11 6 -4 8 -2 4 4 -3 6 -3 13
2 16 4 2 9 22 10 44 2 22 7 53 11 70 7 23 6 34 -5 43 -19 15 -18 34 3 50 11
10 14 10 9 2 -4 -7 -2 -13 3 -13 6 0 11 8 12 18 0 9 2 24 4 34 2 13 -2 15 -25
8 -16 -5 -31 -5 -35 -2 -3 4 -3 -2 1 -11 5 -13 10 -15 17 -8 6 6 18 11 27 11
10 0 5 -9 -15 -25 -16 -13 -35 -23 -41 -20 -6 2 -11 -4 -10 -13 1 -12 -5 -16
-19 -14 -15 2 -17 1 -6 -7 17 -11 41 -4 41 12 0 23 26 -29 28 -55 2 -38 -5
-35 -16 5 -8 29 -9 27 -8 -20 0 -28 4 -46 8 -40 5 8 8 8 8 1 0 -5 -5 -15 -12
-22 -9 -9 -9 -12 0 -12 18 0 10 -24 -11 -32 -10 -4 -16 -11 -13 -16 2 -4 -4
-13 -15 -20 -10 -7 -19 -9 -18 -5 1 5 0 17 -1 28 -1 17 -4 15 -14 -9 -8 -16
-15 -25 -17 -19 -2 5 -26 13 -52 16 -31 5 -46 3 -42 -3 4 -6 11 -8 16 -5 5 4
9 2 9 -3 0 -5 -11 -9 -25 -9 -13 0 -22 3 -19 8 3 5 3 9 -1 9 -3 0 -10 -11 -15
-25 -6 -16 -18 -25 -32 -26 -13 0 -32 -2 -43 -4 -11 -1 -53 -6 -92 -9 -71 -6
-73 -6 -70 16 1 13 7 26 12 31 7 4 6 10 -2 15 -6 4 -9 19 -6 35 4 21 8 25 14
15 7 -10 9 -9 9 5 0 9 -5 17 -11 17 -5 0 -7 5 -4 10 4 6 10 8 15 5 5 -3 12 -1
15 5 4 6 3 10 -2 9 -21 -4 -21 3 -3 37 11 19 16 33 10 29 -5 -3 -10 -2 -10 4
0 5 3 11 8 13 4 2 24 38 45 81 26 50 55 91 85 117 25 22 47 38 50 36 2 -3 11
2 19 10 9 8 22 13 29 10 8 -3 13 0 11 7 -1 8 18 13 58 15 33 1 65 3 70 3 18 1
70 -9 89 -17 13 -5 17 -4 13 3 -20 33 -201 42 -259 13z m-245 -350 c-3 -11 -9
-23 -14 -25 -4 -3 -5 -13 -2 -22 4 -11 3 -14 -5 -9 -17 10 -15 36 5 58 20 23
22 23 16 -2z m-26 -92 c-3 -8 -6 -5 -6 6 -1 11 2 17 5 13 3 -3 4 -12 1 -19z
m-13 -155 c-27 -20 -35 -16 -28 15 9 35 13 39 24 22 8 -12 10 -11 11 5 1 16 3
15 6 -4 3 -16 -1 -29 -13 -38z m206 46 c0 -5 -4 -8 -9 -4 -5 3 -12 1 -16 -5
-3 -5 -17 -10 -30 -10 -13 0 -26 -4 -30 -9 -3 -6 7 -8 22 -6 16 2 22 2 15 -1
-6 -3 -10 -9 -7 -13 2 -5 -6 -7 -19 -6 -20 3 -22 -1 -18 -23 5 -26 5 -26 43
18 34 40 42 44 93 48 43 3 56 1 56 -9 -1 -21 -21 -43 -53 -57 -35 -15 -116
-74 -117 -85 0 -4 8 -4 18 1 9 6 37 13 61 17 37 6 43 5 38 -8 -3 -9 1 -18 8
-21 8 -3 12 -12 9 -19 -4 -10 2 -14 18 -12 13 2 33 -4 43 -12 15 -12 16 -14 3
-10 -9 3 -22 -1 -28 -9 -7 -8 -21 -14 -31 -14 -11 0 -19 -5 -19 -11 0 -6 6 -9
14 -6 8 3 16 1 19 -6 2 -8 9 -6 21 6 21 21 112 68 118 62 9 -10 61 55 69 87 7
27 8 24 3 -17 -6 -62 -59 -171 -97 -199 -23 -17 -46 -22 -126 -24 -124 -5
-175 8 -202 51 -26 43 -46 113 -53 183 -3 43 -3 49 3 24 7 -31 9 -32 10 -8 0
14 4 34 8 44 4 12 3 15 -6 10 -9 -6 -9 -3 1 13 16 26 70 45 104 37 17 -5 23
-3 19 4 -4 6 4 10 19 10 14 0 26 -5 26 -11z m374 -94 c9 -23 -3 -42 -40 -64
l-33 -20 6 32 c3 18 10 40 15 50 11 21 44 23 52 2z m-577 -367 c-3 -8 -6 -5
-6 6 -1 11 2 17 5 13 3 -3 4 -12 1 -19z m23 -88 c0 -44 -15 -54 -22 -16 -4 22
6 56 17 56 3 0 5 -18 5 -40z m0 -59 c0 -5 -3 -17 -6 -26 -5 -12 -9 -14 -14 -4
-5 7 -6 18 -3 26 6 15 23 18 23 4z"/>
<path d="M970 1943 c0 -5 16 -17 35 -26 19 -9 35 -22 35 -29 0 -6 3 -8 7 -5 3
4 13 2 20 -5 11 -9 16 -9 23 1 5 9 10 10 14 2 4 -6 4 -11 -1 -11 -4 0 0 -5 10
-11 13 -7 16 -17 11 -32 -6 -22 -6 -22 13 -2 22 22 20 47 -3 38 -8 -3 -14 1
-14 11 0 14 -12 20 -32 17 -5 0 -8 3 -8 8 0 5 -9 13 -20 16 -11 4 -18 10 -16
14 3 4 -3 7 -12 8 -9 1 -27 4 -39 8 -13 4 -23 3 -23 -2z"/>
<path d="M1400 1910 c-7 -17 -10 -33 -8 -36 3 -3 11 9 17 27 6 18 9 34 7 36
-2 2 -9 -10 -16 -27z"/>
<path d="M1157 1829 c-15 -32 -15 -34 1 -41 27 -10 32 -9 26 7 -4 8 -10 12
-15 9 -5 -3 -9 2 -9 10 0 10 6 13 15 10 8 -4 15 -10 15 -15 0 -4 7 -6 15 -3 8
4 12 10 9 15 -3 5 -10 7 -15 4 -5 -4 -13 4 -17 16 -8 20 -9 20 -25 -12z"/>
<path d="M1316 1850 c6 -8 13 -22 16 -30 3 -10 6 -7 11 9 3 13 3 20 0 17 -4
-3 -13 0 -22 7 -14 10 -14 10 -5 -3z"/>
<path d="M1279 1814 c-13 -15 -19 -24 -12 -21 6 4 13 1 16 -5 3 -10 9 -9 22 3
12 12 14 22 8 33 -8 14 -12 13 -34 -10z m22 -17 c-10 -9 -11 -8 -5 6 3 10 9
15 12 12 3 -3 0 -11 -7 -18z"/>
<path d="M1060 1820 c-9 -6 -10 -10 -3 -10 6 0 15 5 18 10 8 12 4 12 -15 0z"/>
<path d="M1200 1779 c0 -5 5 -7 10 -4 6 3 10 8 10 11 0 2 -4 4 -10 4 -5 0 -10
-5 -10 -11z"/>
<path d="M1047 2654 c-3 -3 -3 -13 0 -22 5 -11 3 -13 -8 -7 -12 7 -12 6 0 -6
11 -12 14 -12 18 0 5 11 7 11 14 0 7 -11 9 -11 9 3 0 9 5 18 12 20 7 3 5 7 -6
11 -10 4 -15 3 -11 -3 3 -6 -1 -10 -10 -10 -9 0 -13 5 -10 10 7 11 2 14 -8 4z"/>
<path d="M1313 2633 c4 -3 -1 -16 -10 -27 -18 -21 -18 -21 4 -2 20 16 23 36 6
36 -4 0 -3 -3 0 -7z"/>
<path d="M1275 2620 c-3 -6 1 -7 9 -4 18 7 21 14 7 14 -6 0 -13 -4 -16 -10z"/>
<path d="M1454 2589 c3 -26 -3 -39 -26 -62 -37 -38 -32 -44 8 -9 31 27 45 84
23 97 -5 4 -7 -8 -5 -26z"/>
<path d="M1007 2583 c-4 -3 -7 -15 -7 -27 0 -15 3 -17 12 -8 6 6 13 19 14 27
2 16 -8 20 -19 8z"/>
<path d="M1043 2573 c4 -3 0 -15 -10 -25 -9 -10 -13 -21 -10 -25 4 -3 7 -1 7
6 0 7 5 9 12 5 7 -4 8 -3 4 4 -4 7 -2 12 3 12 6 0 11 7 11 15 0 8 -5 15 -12
15 -6 0 -8 -3 -5 -7z"/>
<path d="M1252 2539 c-9 -14 -20 -19 -34 -15 -20 5 -20 4 -5 -11 15 -15 18
-14 36 8 18 21 26 39 18 39 -1 0 -8 -9 -15 -21z"/>
<path d="M1310 2526 c0 -2 7 -7 16 -10 8 -3 12 -2 9 4 -6 10 -25 14 -25 6z"/>
<path d="M1376 2501 c-3 -5 1 -14 8 -20 12 -10 13 -8 9 8 -6 23 -9 25 -17 12z"/>
<path d="M1435 2500 c-3 -5 -1 -10 4 -10 6 0 11 5 11 10 0 6 -2 10 -4 10 -3 0
-8 -4 -11 -10z"/>
<path d="M1253 2483 c0 -6 6 -9 14 -6 9 4 11 0 7 -13 -9 -23 -1 -16 14 11 9
17 7 20 -12 20 -13 0 -23 -5 -23 -12z"/>
<path d="M1184 2468 c-4 -7 -3 -10 1 -5 5 4 17 0 27 -10 10 -9 20 -14 22 -12
2 2 -6 12 -19 22 -18 13 -25 14 -31 5z"/>
<path d="M1071 2424 c-12 -26 -20 -48 -18 -50 2 -2 14 17 26 42 13 25 21 47
19 49 -2 3 -14 -16 -27 -41z"/>
<path d="M1300 2458 c0 -9 -6 -19 -12 -21 -10 -4 -10 -6 0 -6 14 -1 28 26 18
36 -3 4 -6 -1 -6 -9z"/>
<path d="M1346 2454 c-5 -14 -4 -15 9 -4 17 14 19 20 6 20 -5 0 -12 -7 -15
-16z"/>
<path d="M962 2431 c2 -9 -4 -25 -14 -35 -10 -11 -18 -25 -18 -30 0 -6 4 -5 9
3 7 11 11 10 20 -5 11 -18 12 -17 6 2 -3 12 0 28 7 35 18 19 18 46 1 46 -8 0
-12 -7 -11 -16z"/>
<path d="M1179 2442 c11 -8 10 -11 -5 -14 -17 -3 -16 -5 4 -10 18 -5 22 -3 20
9 -2 9 -10 18 -18 20 -12 4 -13 3 -1 -5z"/>
<path d="M1243 2433 c-7 -2 -13 -9 -13 -15 0 -7 5 -7 13 1 8 6 18 7 22 3 5 -4
5 -1 1 6 -4 6 -8 12 -9 11 -1 0 -8 -3 -14 -6z"/>
<path d="M1305 2421 c-3 -5 -2 -12 3 -15 5 -3 9 1 9 9 0 17 -3 19 -12 6z"/>
<path d="M1473 2404 c-3 -8 -3 -18 1 -21 3 -4 6 1 6 10 0 10 5 14 15 11 8 -4
15 -4 15 -1 0 14 -31 15 -37 1z"/>
<path d="M1270 2406 c0 -2 7 -7 16 -10 8 -3 12 -2 9 4 -6 10 -25 14 -25 6z"/>
<path d="M1107 2393 c-4 -3 -7 -11 -7 -17 0 -6 5 -5 12 2 6 6 9 14 7 17 -3 3
-9 2 -12 -2z"/>
<path d="M1173 2383 c1 -16 5 -19 13 -12 8 7 17 5 28 -6 15 -15 15 -18 -5 -34
l-21 -17 21 -1 c11 -1 20 1 20 5 -1 4 0 10 1 15 3 9 7 24 9 35 1 4 6 0 12 -8
9 -13 10 -13 6 0 -2 8 -12 16 -23 16 -31 2 -49 8 -56 19 -4 5 -6 0 -5 -12z"/>
<path d="M1268 2378 c5 -5 16 -8 23 -6 8 3 3 7 -10 11 -17 4 -21 3 -13 -5z"/>
<path d="M1107 2340 c-3 -11 -3 -20 -1 -20 2 0 8 9 14 20 6 11 7 20 2 20 -6 0
-12 -9 -15 -20z"/>
<path d="M1190 2349 c0 -5 5 -7 10 -4 6 3 10 8 10 11 0 2 -4 4 -10 4 -5 0 -10
-5 -10 -11z"/>
<path d="M1619 2333 c-5 -30 -3 -70 3 -66 5 2 7 20 5 39 -2 32 -6 43 -8 27z"/>
<path d="M1307 2315 c-4 -8 -1 -17 5 -21 7 -5 8 -2 3 6 -6 10 -4 12 10 6 15
-5 16 -4 5 9 -15 19 -16 19 -23 0z"/>
<path d="M1240 2301 c0 -5 7 -11 15 -15 8 -3 15 -1 15 3 0 5 -7 11 -15 15 -8
3 -15 1 -15 -3z"/>
<path d="M1581 2288 c1 -18 2 -19 6 -5 2 9 9 14 15 11 7 -4 8 -2 4 4 -12 20
-26 13 -25 -10z"/>
<path d="M1380 2280 c-9 -6 -10 -10 -3 -10 6 0 15 5 18 10 8 12 4 12 -15 0z"/>
<path d="M1170 2276 c0 -2 7 -17 15 -32 9 -18 15 -23 15 -12 0 9 -5 20 -10 23
-6 4 -8 11 -5 16 4 5 1 9 -4 9 -6 0 -11 -2 -11 -4z"/>
<path d="M1200 2266 c0 -2 8 -10 18 -17 15 -13 16 -12 3 4 -13 16 -21 21 -21
13z"/>
<path d="M1033 2239 c-2 -23 3 -25 10 -4 4 8 3 16 -1 19 -4 3 -9 -4 -9 -15z"/>
<path d="M1063 2235 c0 -7 6 -11 14 -8 7 3 13 6 13 8 0 2 -6 5 -13 8 -8 3 -14
-1 -14 -8z"/>
<path d="M1130 2239 c0 -5 11 -9 25 -9 14 0 25 2 25 4 0 2 -11 6 -25 8 -14 3
-25 1 -25 -3z"/>
<path d="M1167 2199 c-9 -6 -14 -15 -11 -21 4 -6 1 -8 -7 -6 -8 3 -13 11 -11
17 3 18 -6 13 -18 -9 -9 -16 -8 -19 6 -13 12 4 15 3 10 -5 -14 -23 23 0 39 24
17 27 17 28 -8 13z"/>
<path d="M1442 2074 c4 -21 22 -23 26 -1 2 10 -3 17 -13 17 -10 0 -15 -6 -13
-16z"/>
<path d="M910 1863 c0 -5 6 -17 14 -28 7 -11 16 -29 19 -40 3 -12 5 -5 6 17 1
28 -4 40 -19 48 -11 6 -20 7 -20 3z"/>
<path d="M1467 1793 c10 -3 9 -11 -2 -33 -8 -16 -15 -35 -15 -42 0 -7 9 5 19
27 19 41 18 56 -2 54 -9 0 -9 -2 0 -6z"/>
<path d="M1128 1683 c-8 -10 -18 -25 -22 -33 -4 -8 2 -3 14 13 12 15 27 24 32
21 7 -4 8 -2 4 4 -9 15 -10 15 -28 -5z"/>
<path d="M1180 1666 c0 -2 7 -7 16 -10 8 -3 12 -2 9 4 -6 10 -25 14 -25 6z"/>
<path d="M1006 1648 c3 -4 9 -8 15 -8 5 0 9 4 9 8 0 5 -7 9 -15 9 -8 0 -12 -4
-9 -9z"/>
<path d="M1080 1630 c8 -5 20 -10 25 -10 6 0 3 5 -5 10 -8 5 -19 10 -25 10 -5
0 -3 -5 5 -10z"/>
<path d="M1126 1613 c-6 -14 -5 -15 5 -6 7 7 10 15 7 18 -3 3 -9 -2 -12 -12z"/>
<path d="M1400 1548 c-17 -28 -24 -31 -22 -7 1 3 -6 6 -14 6 -7 0 -14 -4 -14
-9 0 -4 4 -8 9 -8 5 0 11 -7 15 -15 3 -8 2 -14 -2 -14 -20 3 -32 -3 -41 -20
-8 -15 -7 -18 10 -17 11 0 23 7 28 14 4 7 17 15 27 17 10 2 20 4 22 4 2 1 -1
9 -7 18 -11 21 5 57 21 47 7 -4 8 -3 4 4 -11 17 -14 15 -36 -20z"/>
<path d="M1536 1519 c5 -30 2 -38 -20 -52 -14 -10 -26 -24 -26 -32 0 -8 -7
-15 -16 -15 -12 0 -14 3 -6 13 9 10 6 17 -8 30 -24 20 -34 21 -52 5 -28 -26
-98 -59 -98 -47 0 7 -3 9 -7 6 -3 -4 -12 -2 -20 4 -7 6 -13 8 -13 3 0 -4 -7 1
-16 12 -15 18 -15 18 -10 -6 5 -24 4 -24 -9 -6 -15 20 -20 10 -9 -18 3 -9 11
-13 18 -9 6 4 5 -1 -2 -10 -12 -14 -11 -20 2 -38 15 -22 84 -40 71 -19 -3 6 1
10 9 10 8 0 18 -4 21 -10 10 -15 28 -12 22 4 -7 17 30 19 51 3 16 -12 16 5 0
21 -15 15 -54 16 -63 2 -9 -14 -92 -13 -101 2 -4 6 0 16 9 23 9 7 13 16 9 20
-4 5 4 1 17 -8 21 -14 28 -14 57 -2 18 7 36 10 40 7 4 -4 4 -2 1 4 -3 6 10 17
29 26 28 13 34 13 34 2 0 -8 -8 -14 -17 -15 -10 0 -2 -6 17 -12 34 -12 36 -11
73 26 41 43 43 50 22 87 -14 25 -14 24 -9 -11z"/>
<path d="M1140 1522 c0 -5 7 -9 15 -9 8 0 12 4 9 9 -3 4 -9 8 -15 8 -5 0 -9
-4 -9 -8z"/>
<path d="M1317 1513 c3 -7 6 -13 8 -13 2 0 5 6 8 13 3 8 -1 14 -8 14 -7 0 -11
-6 -8 -14z"/>
<path d="M1285 1499 c-4 -5 -4 -13 -1 -16 3 -4 6 0 6 8 0 11 2 11 10 -1 6 -9
10 -10 10 -3 0 17 -17 25 -25 12z"/>
<path d="M1065 1469 c-4 -6 -5 -12 -2 -15 2 -3 7 2 10 11 7 17 1 20 -8 4z"/>
<path d="M1296 1455 c-3 -9 0 -15 9 -15 9 0 12 6 9 15 -4 8 -7 15 -9 15 -2 0
-5 -7 -9 -15z"/>
<path d="M1106 1427 c3 -10 9 -15 12 -12 3 3 0 11 -7 18 -10 9 -11 8 -5 -6z"/>
<path d="M1180 1399 c0 -5 5 -7 10 -4 6 3 10 8 10 11 0 2 -4 4 -10 4 -5 0 -10
-5 -10 -11z"/>
<path d="M1197 1383 c-4 -3 -7 -13 -6 -22 0 -12 2 -11 8 3 4 12 10 15 14 9 4
-6 -2 -21 -13 -33 -12 -14 -16 -26 -11 -30 15 -9 -5 -34 -22 -27 -11 4 -14 1
-11 -8 3 -8 12 -11 20 -8 8 3 21 0 29 -7 18 -15 20 1 3 18 -9 9 -7 19 10 42
19 25 20 33 10 50 -14 21 -20 24 -31 13z"/>
<path d="M1330 1322 c0 -5 7 -9 15 -9 8 0 12 4 9 9 -3 4 -9 8 -15 8 -5 0 -9
-4 -9 -8z"/>
<path d="M1372 1309 c-10 -15 -11 -24 -3 -32 8 -8 11 -8 11 1 0 6 10 20 22 32
21 19 21 20 2 20 -10 0 -25 -10 -32 -21z"/>
<path d="M1294 1265 c-4 -8 -13 -15 -21 -15 -8 0 -11 -5 -7 -11 5 -8 -1 -10
-19 -7 -20 4 -25 1 -24 -14 1 -13 7 -18 18 -15 10 3 27 -4 39 -15 13 -12 41
-23 69 -26 43 -4 71 -16 71 -31 0 -3 -17 -17 -38 -31 -20 -14 -40 -29 -43 -33
-3 -5 -10 -9 -15 -9 -5 1 -8 -6 -6 -14 2 -8 -2 -14 -8 -14 -6 0 -9 -4 -6 -8 3
-5 -1 -9 -9 -9 -8 0 -14 3 -13 6 0 3 -1 9 -2 14 -1 4 -3 12 -4 18 -2 19 -43
30 -50 14 -4 -12 15 -27 39 -29 6 -1 9 -15 7 -31 -2 -17 1 -25 5 -20 14 17 36
17 29 0 -4 -10 -2 -14 5 -9 6 4 14 3 18 -2 3 -5 15 -14 26 -20 11 -6 24 -20
30 -32 5 -12 15 -24 22 -27 10 -3 10 2 -1 23 -16 32 -72 83 -80 75 -3 -4 -6 3
-6 15 0 12 5 22 11 22 5 0 8 4 5 9 -3 5 1 15 10 22 13 11 15 9 11 -12 -2 -13
-2 -18 0 -11 4 10 12 8 31 -9 15 -13 21 -17 15 -9 -16 17 -17 34 -2 24 8 -5 8
-1 0 14 -8 15 -6 23 9 37 39 36 22 72 -41 86 -24 6 -55 17 -68 26 l-23 15 42
19 c47 21 48 23 7 33 -20 5 -29 2 -33 -9z m26 -5 c0 -5 -4 -10 -10 -10 -5 0
-10 5 -10 10 0 6 5 10 10 10 6 0 10 -4 10 -10z m70 -200 c0 -5 -4 -10 -10 -10
-5 0 -10 5 -10 10 0 6 5 10 10 10 6 0 10 -4 10 -10z"/>
<path d="M1134 1195 c5 -11 9 -25 9 -32 0 -7 5 -11 11 -10 6 1 10 -4 8 -12 -4
-17 47 -73 60 -65 15 9 9 22 -27 55 -19 19 -35 39 -35 45 0 6 -8 18 -17 25
-15 12 -16 12 -9 -6z"/>
<path d="M1285 1091 c-3 -6 -2 -11 3 -11 5 0 7 -12 4 -26 -3 -18 -1 -25 6 -20
5 3 9 17 7 31 -3 31 -11 40 -20 26z"/>
<path d="M1421 1086 c-9 -10 -9 -16 -1 -21 17 -10 37 12 24 25 -8 8 -15 6 -23
-4z m19 -6 c0 -5 -5 -10 -11 -10 -5 0 -7 5 -4 10 3 6 8 10 11 10 2 0 4 -4 4
-10z"/>
<path d="M1193 955 c0 -8 4 -12 9 -9 12 8 49 -26 42 -38 -3 -4 -2 -7 3 -6 4 1
19 -4 33 -11 14 -8 5 4 -19 25 -57 50 -68 56 -68 39z"/>
<path d="M1240 957 c0 -3 28 -27 63 -53 34 -26 65 -50 69 -54 11 -9 -35 -6
-49 3 -6 4 -15 2 -19 -5 -4 -7 -4 -10 1 -6 11 11 50 -19 50 -39 0 -9 6 -18 14
-21 10 -3 12 1 8 19 -4 14 0 30 9 41 15 16 13 18 -17 31 -19 8 -47 25 -64 38
-54 44 -65 52 -65 46z"/>
<path d="M1310 930 c0 -5 5 -10 11 -10 5 0 7 5 4 10 -3 6 -8 10 -11 10 -2 0
-4 -4 -4 -10z"/>
<path d="M1280 797 c0 -3 15 -10 32 -16 18 -6 28 -7 23 -2 -12 10 -55 25 -55
18z"/>
<path d="M1350 766 c0 -2 7 -6 15 -10 8 -3 15 -1 15 4 0 6 -7 10 -15 10 -8 0
-15 -2 -15 -4z"/>
<path d="M1021 714 c-1 -41 7 -68 39 -131 65 -130 139 -206 211 -219 l34 -6
-41 21 c-22 12 -55 36 -72 54 -32 33 -102 142 -102 158 0 5 -5 9 -11 9 -5 0
-7 5 -4 10 3 6 -1 17 -9 25 -8 9 -18 32 -21 53 -12 69 -24 82 -24 26z"/>
<path d="M1187 729 c7 -7 15 -10 18 -7 3 3 -2 9 -12 12 -14 6 -15 5 -6 -5z"/>
<path d="M1362 721 c7 -9 14 -18 15 -20 2 -2 3 5 3 16 0 11 -7 20 -15 20 -12
0 -12 -3 -3 -16z"/>
<path d="M1284 721 c7 -11 46 -35 46 -28 0 3 -12 12 -26 22 -15 9 -23 12 -20
6z"/>
<path d="M1360 655 c6 -8 9 -18 6 -24 -3 -5 3 -7 14 -4 12 3 20 0 20 -6 0 -7
4 -10 9 -6 11 6 -34 55 -51 55 -7 0 -6 -5 2 -15z"/>
<path d="M1332 643 c-13 -5 -7 -23 9 -23 6 0 8 4 5 9 -4 5 0 12 6 14 7 3 9 5
3 5 -5 0 -16 -2 -23 -5z"/>
<path d="M1322 584 c-1 -13 0 -24 2 -24 7 0 14 40 7 44 -4 3 -8 -6 -9 -20z"/>
</g>
</svg>
